<svg width="778" height="496" viewBox="0 0 778 496" fill="none" xmlns="http://www.w3.org/2000/svg">
<path d="M372.309 382.576V392.92H382.811V395.218H372.309V405.721H384V408.02H369.534V380.277H384V382.576H372.309Z" fill="#010136"/>
<path d="M360.331 388.402C359.539 386.579 358.323 385.152 356.685 384.122C355.073 383.065 353.171 382.536 350.978 382.536C348.917 382.536 347.068 383.012 345.43 383.963C343.792 384.914 342.497 386.275 341.546 388.045C340.595 389.789 340.119 391.823 340.119 394.149C340.119 396.474 340.595 398.521 341.546 400.291C342.497 402.062 343.792 403.422 345.43 404.373C347.068 405.325 348.917 405.8 350.978 405.8C352.907 405.8 354.638 405.391 356.17 404.572C357.729 403.726 358.971 402.537 359.895 401.005C360.846 399.446 361.388 397.636 361.52 395.575H349.868V393.316H364.453V395.337C364.321 397.768 363.66 399.974 362.471 401.956C361.282 403.911 359.684 405.457 357.676 406.593C355.694 407.729 353.462 408.297 350.978 408.297C348.415 408.297 346.09 407.703 344.003 406.514C341.916 405.298 340.264 403.62 339.049 401.48C337.86 399.314 337.266 396.87 337.266 394.149C337.266 391.427 337.86 388.996 339.049 386.856C340.264 384.69 341.916 383.012 344.003 381.823C346.09 380.608 348.415 380 350.978 380C353.937 380 356.527 380.74 358.746 382.219C360.965 383.699 362.577 385.76 363.581 388.402H360.331Z" fill="#010136"/>
<path d="M332.25 408.015H329.476L314.139 384.712V408.015H311.365V380.312H314.139L329.476 403.576V380.312H332.25V408.015Z" fill="#010136"/>
<path d="M301.562 401.443H288.959L286.541 408.022H283.608L293.714 380.676H296.845L306.912 408.022H303.979L301.562 401.443ZM300.729 399.144L295.26 384.163L289.791 399.144H300.729Z" fill="#010136"/>
<path d="M279.181 380.312V408.015H276.407V395.055H261.386V408.015H258.612V380.312H261.386V392.757H276.407V380.312H279.181Z" fill="#010136"/>
<path d="M226.769 394.149C226.769 391.427 227.363 388.996 228.552 386.856C229.741 384.69 231.366 383.012 233.427 381.823C235.488 380.608 237.786 380 240.323 380C243.414 380 246.056 380.74 248.249 382.219C250.468 383.673 252.08 385.733 253.084 388.402H249.834C249.042 386.526 247.826 385.06 246.188 384.003C244.577 382.946 242.621 382.418 240.323 382.418C238.288 382.418 236.452 382.893 234.814 383.844C233.202 384.795 231.934 386.169 231.009 387.966C230.085 389.736 229.622 391.797 229.622 394.149C229.622 396.5 230.085 398.561 231.009 400.331C231.934 402.101 233.202 403.462 234.814 404.413C236.452 405.364 238.288 405.84 240.323 405.84C242.621 405.84 244.577 405.325 246.188 404.294C247.826 403.237 249.042 401.784 249.834 399.935H253.084C252.08 402.577 250.468 404.624 248.249 406.078C246.03 407.531 243.388 408.257 240.323 408.257C237.786 408.257 235.488 407.663 233.427 406.474C231.366 405.259 229.741 403.581 228.552 401.441C227.363 399.301 226.769 396.87 226.769 394.149Z" fill="#010136"/>
<path d="M214.841 394.184L223.243 408.015H220.152L213.097 396.443L206.4 408.015H203.308L211.671 394.065L203.308 380.312H206.4L213.414 391.845L220.191 380.312H223.283L214.841 394.184Z" fill="#010136"/>
<path d="M187.696 382.576V392.92H198.199V395.218H187.696V405.721H199.388V408.02H184.922V380.277H199.388V382.576H187.696Z" fill="#010136"/>
<path d="M159.769 408.297C157.946 408.297 156.334 407.98 154.934 407.346C153.56 406.712 152.476 405.827 151.684 404.691C150.891 403.554 150.468 402.286 150.416 400.886H153.348C153.48 402.233 154.075 403.422 155.132 404.453C156.189 405.457 157.734 405.959 159.769 405.959C161.645 405.959 163.124 405.483 164.207 404.532C165.317 403.554 165.872 402.326 165.872 400.846C165.872 399.657 165.568 398.706 164.96 397.993C164.353 397.253 163.6 396.711 162.701 396.368C161.803 395.998 160.561 395.602 158.976 395.179C157.126 394.677 155.66 394.188 154.577 393.713C153.494 393.237 152.569 392.497 151.803 391.493C151.036 390.489 150.653 389.128 150.653 387.411C150.653 385.984 151.023 384.716 151.763 383.606C152.503 382.47 153.546 381.585 154.894 380.951C156.241 380.317 157.787 380 159.531 380C162.094 380 164.155 380.634 165.713 381.902C167.299 383.144 168.21 384.756 168.448 386.737H165.436C165.251 385.601 164.63 384.597 163.573 383.725C162.516 382.827 161.09 382.378 159.293 382.378C157.628 382.378 156.241 382.827 155.132 383.725C154.022 384.597 153.467 385.799 153.467 387.332C153.467 388.494 153.771 389.432 154.379 390.146C154.986 390.859 155.739 391.401 156.638 391.771C157.562 392.141 158.804 392.537 160.363 392.96C162.16 393.462 163.613 393.964 164.723 394.466C165.832 394.941 166.77 395.681 167.536 396.685C168.303 397.689 168.686 399.036 168.686 400.727C168.686 402.022 168.342 403.251 167.655 404.413C166.968 405.576 165.951 406.514 164.604 407.227C163.256 407.94 161.645 408.297 159.769 408.297Z" fill="#010136"/>
<path d="M137.089 408.297C135.266 408.297 133.654 407.98 132.254 407.346C130.88 406.712 129.797 405.827 129.004 404.691C128.211 403.554 127.789 402.286 127.736 400.886H130.669C130.801 402.233 131.395 403.422 132.452 404.453C133.509 405.457 135.054 405.959 137.089 405.959C138.965 405.959 140.444 405.483 141.528 404.532C142.637 403.554 143.192 402.326 143.192 400.846C143.192 399.657 142.888 398.706 142.281 397.993C141.673 397.253 140.92 396.711 140.022 396.368C139.123 395.998 137.882 395.602 136.296 395.179C134.447 394.677 132.98 394.188 131.897 393.713C130.814 393.237 129.889 392.497 129.123 391.493C128.357 390.489 127.974 389.128 127.974 387.411C127.974 385.984 128.344 384.716 129.083 383.606C129.823 382.47 130.867 381.585 132.214 380.951C133.562 380.317 135.107 380 136.851 380C139.414 380 141.475 380.634 143.034 381.902C144.619 383.144 145.53 384.756 145.768 386.737H142.756C142.571 385.601 141.95 384.597 140.894 383.725C139.837 382.827 138.41 382.378 136.613 382.378C134.949 382.378 133.562 382.827 132.452 383.725C131.342 384.597 130.787 385.799 130.787 387.332C130.787 388.494 131.091 389.432 131.699 390.146C132.307 390.859 133.06 391.401 133.958 391.771C134.883 392.141 136.125 392.537 137.683 392.96C139.48 393.462 140.933 393.964 142.043 394.466C143.153 394.941 144.091 395.681 144.857 396.685C145.623 397.689 146.006 399.036 146.006 400.727C146.006 402.022 145.663 403.251 144.976 404.413C144.289 405.576 143.271 406.514 141.924 407.227C140.577 407.94 138.965 408.297 137.089 408.297Z" fill="#010136"/>
<path d="M111.529 382.576V392.92H122.032V395.218H111.529V405.721H123.221V408.02H108.755V380.277H123.221V382.576H111.529Z" fill="#010136"/>
<path d="M102.471 408.015H99.6972L84.3597 384.712V408.015H81.5855V380.312H84.3597L99.6972 403.576V380.312H102.471V408.015Z" fill="#010136"/>
<path d="M75.3033 380.312V408.015H72.5291V380.312H75.3033Z" fill="#010136"/>
<path d="M58.2511 408.297C56.4281 408.297 54.8164 407.98 53.4161 407.346C52.0422 406.712 50.9589 405.827 50.1663 404.691C49.3737 403.554 48.9509 402.286 48.8981 400.886H51.8308C51.9629 402.233 52.5574 403.422 53.6142 404.453C54.6711 405.457 56.2167 405.959 58.2511 405.959C60.127 405.959 61.6066 405.483 62.6899 404.532C63.7996 403.554 64.3544 402.326 64.3544 400.846C64.3544 399.657 64.0506 398.706 63.4429 397.993C62.8352 397.253 62.0822 396.711 61.1839 396.368C60.2856 395.998 59.0438 395.602 57.4585 395.179C55.609 394.677 54.1427 394.188 53.0594 393.713C51.9761 393.237 51.0514 392.497 50.2852 391.493C49.519 390.489 49.1359 389.128 49.1359 387.411C49.1359 385.984 49.5058 384.716 50.2455 383.606C50.9853 382.47 52.029 381.585 53.3764 380.951C54.7239 380.317 56.2696 380 58.0134 380C60.5762 380 62.6371 380.634 64.1959 381.902C65.7812 383.144 66.6927 384.756 66.9305 386.737H63.9185C63.7335 385.601 63.1126 384.597 62.0558 383.725C60.9989 382.827 59.5722 382.378 57.7756 382.378C56.111 382.378 54.7239 382.827 53.6142 383.725C52.5046 384.597 51.9497 385.799 51.9497 387.332C51.9497 388.494 52.2536 389.432 52.8612 390.146C53.4689 390.859 54.2219 391.401 55.1202 391.771C56.045 392.141 57.2868 392.537 58.8456 392.96C60.6423 393.462 62.0954 393.964 63.2051 394.466C64.3148 394.941 65.2527 395.681 66.019 396.685C66.7852 397.689 67.1683 399.036 67.1683 400.727C67.1683 402.022 66.8248 403.251 66.1379 404.413C65.4509 405.576 64.4337 406.514 63.0862 407.227C61.7387 407.94 60.127 408.297 58.2511 408.297Z" fill="#010136"/>
<path d="M26.3028 380.312V397.75C26.3028 400.498 26.9502 402.533 28.2448 403.854C29.5659 405.175 31.3625 405.835 33.6347 405.835C35.9069 405.835 37.6771 405.188 38.9454 403.893C40.24 402.572 40.8873 400.525 40.8873 397.75V380.312H43.6615V397.711C43.6615 401.225 42.7236 403.867 40.8477 405.637C38.9982 407.407 36.5807 408.292 33.5951 408.292C30.6095 408.292 28.1787 407.407 26.3028 405.637C24.4534 403.867 23.5286 401.225 23.5286 397.711V380.312H26.3028Z" fill="#010136"/>
<path d="M12.9596 393.708C14.5184 393.999 15.8395 394.791 16.9227 396.086C18.006 397.381 18.5476 398.887 18.5476 400.604C18.5476 402.004 18.1909 403.272 17.4776 404.409C16.7906 405.518 15.7734 406.403 14.4259 407.064C13.0785 407.698 11.4668 408.015 9.59087 408.015H0V380.312H9.31345C12.1141 380.312 14.241 380.96 15.6941 382.254C17.1737 383.549 17.9135 385.227 17.9135 387.288C17.9135 389.005 17.4512 390.405 16.5264 391.489C15.6017 392.545 14.4127 393.285 12.9596 393.708ZM2.77422 392.559H9.23418C11.1101 392.559 12.55 392.123 13.554 391.251C14.5845 390.353 15.0997 389.124 15.0997 387.565C15.0997 386.033 14.5845 384.831 13.554 383.959C12.55 383.087 11.0705 382.651 9.11529 382.651H2.77422V392.559ZM9.39271 405.677C11.4007 405.677 12.9596 405.201 14.0693 404.25C15.2054 403.299 15.7734 401.991 15.7734 400.327C15.7734 398.662 15.1789 397.341 13.99 396.363C12.8275 395.359 11.2554 394.857 9.27382 394.857H2.77422V405.677H9.39271Z" fill="#010136"/>
<path d="M595 143L645 74.5H675L363.5 496H332L495.5 274.5L452 74.5H579L595 143ZM777.5 0L612.5 220L655 422H528L514 355.5L462.5 422H432L746 0H777.5Z" fill="url(#paint0_linear_288_216)"/>
<path d="M315.245 307.751H383.721V347.649H261.2V309.166L326.847 229.655H261.766V189.758H382.307V228.24L315.245 307.751Z" fill="#010136"/>
<path d="M210.855 173.347C202.367 173.347 195.387 170.895 189.916 165.99C184.635 160.897 181.994 154.672 181.994 147.315C181.994 139.77 184.635 133.544 189.916 128.64C195.387 123.547 202.367 121 210.855 121C219.155 121 225.946 123.547 231.228 128.64C236.699 133.544 239.434 139.77 239.434 147.315C239.434 154.672 236.699 160.897 231.228 165.99C225.946 170.895 219.155 173.347 210.855 173.347ZM234.907 189.759V347.65H186.521V189.759H234.907Z" fill="#010136"/>
<path d="M120.257 245.787C131.764 248.24 141.008 253.993 147.987 263.048C154.967 271.914 158.457 282.1 158.457 293.607C158.457 310.208 152.609 323.412 140.913 333.222C129.406 342.842 113.278 347.652 92.5274 347.652H0V149.016H89.4149C109.599 149.016 125.351 153.637 136.669 162.881C148.176 172.124 153.929 184.668 153.929 200.514C153.929 212.21 150.817 221.925 144.592 229.659C138.555 237.393 130.444 242.769 120.257 245.787ZM48.3859 229.376H80.0772C88.0001 229.376 94.0365 227.678 98.1866 224.283C102.525 220.698 104.695 215.511 104.695 208.72C104.695 201.929 102.525 196.741 98.1866 193.157C94.0365 189.573 88.0001 187.781 80.0772 187.781H48.3859V229.376ZM84.0387 308.604C92.1501 308.604 98.3752 306.812 102.714 303.228C107.241 299.455 109.505 294.079 109.505 287.099C109.505 280.12 107.147 274.649 102.431 270.688C97.9036 266.726 91.5842 264.746 83.4727 264.746H48.3859V308.604H84.0387Z" fill="#010136"/>
<defs>
<linearGradient id="paint0_linear_288_216" x1="730.169" y1="496.006" x2="304.246" y2="79.8729" gradientUnits="userSpaceOnUse">
<stop stop-color="#0463EF"/>
<stop offset="1" stop-color="#16EA9E"/>
</linearGradient>
</defs>
</svg>
